<svg width="24" height="23" viewBox="0 0 24 23" fill="none" xmlns="http://www.w3.org/2000/svg">
<path d="M12 0.322918C9.15591 0.303863 6.39855 1.26351 4.22605 3.02848C2.05355 4.79345 0.609194 7.24735 0.153931 9.94682C-0.301332 12.6463 0.262523 15.4133 1.74362 17.748C3.22473 20.0826 5.5254 21.831 8.22997 22.6771C8.8258 22.7708 9.0208 22.3854 9.0208 22.1042V20.1875C5.7383 20.8542 5.04497 18.6667 5.04497 18.6667C4.44914 17.3229 3.6583 16.9479 3.6583 16.9479C2.66164 16.2708 3.76664 16.2708 3.76664 16.2708C4.9583 16.2708 5.6408 17.4167 5.6408 17.4167C6.63747 19.1354 8.42497 18.6667 9.1183 18.375C9.11777 18.0876 9.17909 17.8032 9.29841 17.5396C9.41773 17.2761 9.59247 17.0392 9.81164 16.8438C7.1358 16.5625 4.35164 15.6042 4.35164 11.1146C4.35164 9.96875 4.84997 8.92708 5.65164 8.15625C5.4392 7.67341 5.32973 7.15448 5.32973 6.63021C5.32973 6.10594 5.4392 5.58701 5.65164 5.10417C5.65164 5.10417 6.63747 4.8125 9.0208 6.25C10.9708 5.73958 13.0291 5.73958 14.9791 6.25C17.2541 4.8125 18.2508 5.10417 18.2508 5.10417C18.4632 5.58701 18.5727 6.10594 18.5727 6.63021C18.5727 7.15448 18.4632 7.67341 18.2508 8.15625C19.15 8.92708 19.5508 9.96875 19.5508 11.2188C19.5508 15.6042 16.7666 16.5625 14.0908 16.8438C14.5783 17.2292 14.9791 17.8021 14.9791 18.9479V22.1042C14.9791 22.3854 15.0875 22.7708 15.77 22.6771C18.4745 21.831 20.7752 20.0826 22.2563 17.748C23.7374 15.4133 24.3013 12.6463 23.846 9.94682C23.3907 7.24735 21.9464 4.79345 19.7739 3.02848C17.6014 1.26351 14.844 0.303863 12 0.322918Z" fill="#C9D1D9"/>
</svg>
