<svg width="20" height="20" viewBox="0 0 20 20" fill="none" xmlns="http://www.w3.org/2000/svg">
<path d="M17.5833 0.25C18.158 0.25 18.7091 0.478273 19.1154 0.884602C19.5217 1.29093 19.75 1.84203 19.75 2.41667V17.5833C19.75 18.158 19.5217 18.7091 19.1154 19.1154C18.7091 19.5217 18.158 19.75 17.5833 19.75H2.41667C1.84203 19.75 1.29093 19.5217 0.884602 19.1154C0.478273 18.7091 0.25 18.158 0.25 17.5833V2.41667C0.25 1.84203 0.478273 1.29093 0.884602 0.884602C1.29093 0.478273 1.84203 0.25 2.41667 0.25H17.5833ZM17.0417 17.0417V11.3C17.0417 10.3633 16.6696 9.46505 16.0073 8.80273C15.3449 8.14042 14.4467 7.76833 13.51 7.76833C12.5892 7.76833 11.5167 8.33167 10.9967 9.17667V7.97417H7.97417V17.0417H10.9967V11.7008C10.9967 10.8667 11.6683 10.1842 12.5025 10.1842C12.9047 10.1842 13.2905 10.344 13.5749 10.6284C13.8594 10.9128 14.0192 11.2986 14.0192 11.7008V17.0417H17.0417ZM4.45333 6.27333C4.93603 6.27333 5.39895 6.08158 5.74027 5.74027C6.08158 5.39895 6.27333 4.93603 6.27333 4.45333C6.27333 3.44583 5.46083 2.6225 4.45333 2.6225C3.96777 2.6225 3.50209 2.81539 3.15874 3.15874C2.81539 3.50209 2.6225 3.96777 2.6225 4.45333C2.6225 5.46083 3.44583 6.27333 4.45333 6.27333ZM5.95917 17.0417V7.97417H2.95833V17.0417H5.95917Z" fill="#C9D1D9"/>
</svg>
