<svg width="22" height="23" viewBox="0 0 22 23" fill="none" xmlns="http://www.w3.org/2000/svg">
<path d="M11 0.25C5.02002 0.25 0.166687 5.29 0.166687 11.5C0.166687 17.71 5.02002 22.75 11 22.75H16.4167V20.5H11C6.29835 20.5 2.33335 16.3825 2.33335 11.5C2.33335 6.6175 6.29835 2.5 11 2.5C15.7017 2.5 19.6667 6.6175 19.6667 11.5V13.1088C19.6667 13.9975 18.8975 14.875 18.0417 14.875C17.1859 14.875 16.4167 13.9975 16.4167 13.1088V11.5C16.4167 8.395 13.99 5.875 11 5.875C8.01002 5.875 5.58335 8.395 5.58335 11.5C5.58335 14.605 8.01002 17.125 11 17.125C12.495 17.125 13.86 16.495 14.835 15.4712C15.5392 16.4725 16.7525 17.125 18.0417 17.125C20.1759 17.125 21.8334 15.325 21.8334 13.1088V11.5C21.8334 5.29 16.98 0.25 11 0.25ZM11 14.875C9.20169 14.875 7.75002 13.3675 7.75002 11.5C7.75002 9.6325 9.20169 8.125 11 8.125C12.7984 8.125 14.25 9.6325 14.25 11.5C14.25 13.3675 12.7984 14.875 11 14.875Z" fill="#C9D1D9"/>
</svg>
